<svg width="56" height="56" fill="none" xmlns="http://www.w3.org/2000/svg"><path fill="#00A651" d="M0 0h56v56H0z"/><path d="M30.622 30.73c-.03-.508-.322-.892-.717-1.12.08-.37.188-.656.34-.819h-.589c-.121.182-.219.39-.316.611a1.6 1.6 0 0 0-1.154.215v-.514h-.371v.514a1.616 1.616 0 0 0-1.16-.215 3.654 3.654 0 0 0-.317-.624h-.589c.152.156.261.455.34.826-.389.228-.68.611-.71 1.119-.055.689.285 1.157.759 1.385-.116.839-.37 1.554-.76 1.736l.9-.013c.103-.37.17-.962.212-1.6.22.052.456.059.687.026.182.833.4 1.652.832 2.355.432-.703.657-1.516.833-2.348.23.032.468.02.686-.033.037.638.11 1.23.213 1.6l.887.026c-.395-.182-.644-.897-.76-1.736.469-.228.809-.696.754-1.392Zm-1.063-1.302c0 .007-.006.02-.006.033h-.006c0-.013.006-.02.012-.032Zm-1.38.573c.335-.273.718-.37 1.058-.325-.243.702-.401 1.534-.571 2.315a1.087 1.087 0 0 1-.493-.312V30h.007Zm-.37 0v1.678c-.128.15-.304.253-.492.312-.17-.78-.322-1.613-.572-2.315a1.39 1.39 0 0 1 1.064.325Zm-1.367-.573c.006.007.006.014.012.026h-.006c0-.006 0-.013-.006-.026Zm-.68 1.808c-.128-.565.048-1.02.376-1.294.079.566.091 1.249.024 1.886a.98.98 0 0 1-.4-.592Zm.734.755a19.14 19.14 0 0 0-.012-2.244c.024-.006.049-.02.073-.026.255.729.401 1.528.565 2.322a1.55 1.55 0 0 1-.626-.052Zm1.313.071s0 .794-.122 1.334a9.858 9.858 0 0 1-.316-1.171c.152-.033.298-.091.438-.163Zm.182 1.984a2.398 2.398 0 0 1-.188-.358h.377a1.747 1.747 0 0 1-.189.358Zm.304-.638c-.134-.54-.116-1.346-.116-1.346.14.072.286.13.438.17-.097.422-.195.825-.322 1.176Zm.59-1.372c.163-.793.303-1.587.564-2.315a.327.327 0 0 1 .073.026 19.084 19.084 0 0 0-.012 2.237c-.2.065-.42.085-.626.052Zm.935-.201a8.506 8.506 0 0 1 .024-1.893c.328.273.51.729.383 1.294a.954.954 0 0 1-.407.599Zm4.888-10.842c.03.013.615-2.23-3.226-2.23 0 0-1.26.013-2.1-.095-.086-.013-.134.09-.08.16.372.445.865 1.286.317 2.184-1.272 1.707-1.558 3.121-1.62 4.682-.06-1.567-.346-2.981-1.619-4.682-.547-.892-.054-1.733.317-2.185.055-.064.006-.166-.08-.16-.84.11-2.1.096-2.1.096-3.835 0-3.257 2.243-3.226 2.23 1.638-.733 2.892-.248 3.738 1.07.615.956 1.297 3.465-.006 5.548h5.954c-1.31-2.083-.621-4.592-.006-5.548.846-1.319 2.1-1.803 3.737-1.07ZM17.079 30.08c1.362 0 2.35-.175 3.668-.615.063-.024.132-.006.188.03-.05.042-1.381 1.012-5.075 1.56-.081.012-.106.108-.05.156a3.317 3.317 0 0 0 2.9.711c.944-.247 2.075-.819 3.256-1.65a.25.25 0 0 1 .244-.024c-.025.048-.688 1.096-3.844 2.656-.069.036-.069.132.006.162.382.157.782.235 1.176.235.45 0 .88-.108 1.25-.307.955-.53 1.512-1.048 2.4-2.294a.195.195 0 0 1 .2-.073.555.555 0 0 1-.026.079c-.212.524-.568 1.53-2.562 3.257-.05.049-.038.127.031.15.156.055.381.11.669.11.387 0 .787-.103 1.18-.296.482-.229.807-.62 1.057-1.258a.737.737 0 0 1 .681-.476c.188 0 .375.072.525.21.02.013.044 0 .044-.017v-4.27c0-.024-.031-.03-.044-.018-.43.44-.887.536-1.2.536-.7 0-1.38-.482-1.593-1.12-.007-.012-.357-1.288.844-1.897h.012s.106-.042.119-.114c.006-.042-.019-.127-.238-.265-.012-.006-1.194-.687-2.669-2.06-1.3-1.222-3.087-3.221-4.387-5.979-.056-.115-.225-.12-.28 0-.37.759-.988 2.517.13 4.227.775 1.156 1.85 2.168 3.394 3.18a.203.203 0 0 1 .087.186c-.024-.006-2.206-.626-5.112-3.522-.056-.055-.15-.024-.162.048-.088.65-.132 2.264 1.268 3.438 1.382 1.054 2.35 1.343 3.888 1.686.094.018.162.09.175.18-.007 0-.013.007-.163.007-.731 0-2.706-.187-5.562-1.89a.093.093 0 0 0-.144.083c.075.645.4 2.168 1.9 2.74.688.283 1.7.602 3.431.602.313 0 .607-.006.938-.03a.208.208 0 0 1 .2.109c-.025.012-.85.373-2.494.373-1.007 0-2.1-.138-3.244-.415-.081-.018-.143.06-.106.132.632 1.156 1.488 1.71 2.687 1.74.138 0 .276.006.407.006Zm24.911-1.888c-1.17.289-2.282.433-3.314.433-1.645 0-2.47-.367-2.508-.38a.21.21 0 0 1 .2-.108c.332.018.626.03.939.03 1.725 0 2.738-.325 3.433-.602 1.5-.572 1.832-2.097 1.9-2.741a.093.093 0 0 0-.143-.084c-2.858 1.705-4.84 1.891-5.566 1.891-.15 0-.162-.006-.162-.006a.239.239 0 0 1 .175-.18c1.538-.344 2.514-.633 3.89-1.687 1.406-1.17 1.362-2.784 1.269-3.44-.013-.073-.107-.103-.163-.049-2.907 2.898-5.09 3.519-5.115 3.525a.19.19 0 0 1 .088-.187c1.538-1.012 2.62-2.024 3.395-3.181 1.126-1.711.5-3.47.131-4.23-.056-.114-.231-.114-.281 0-1.294 2.766-3.083 4.766-4.383 5.977-1.476 1.374-2.658 2.055-2.67 2.06-.22.14-.244.223-.238.266.006.072.112.114.119.114h.012c1.195.609.844 1.886.844 1.898-.212.639-.894 1.12-1.594 1.12-.313 0-.77-.096-1.2-.536-.02-.018-.045-.006-.045.018v4.272c0 .024.025.036.044.018a.805.805 0 0 1 .525-.211c.107 0 .207.024.3.066a.717.717 0 0 1 .382.41c.25.639.575 1.03 1.057 1.26.394.198.794.294 1.182.294.281 0 .512-.054.669-.108a.088.088 0 0 0 .031-.15c-1.995-1.73-2.351-2.742-2.564-3.26-.012-.024-.019-.054-.025-.078a.195.195 0 0 1 .2.072c.888 1.253 1.445 1.765 2.401 2.295.37.2.8.308 1.251.308.394 0 .8-.079 1.176-.235.075-.03.075-.133.006-.163-3.158-1.56-3.82-2.615-3.846-2.657a.253.253 0 0 1 .244.024c1.182.838 2.314 1.404 3.258 1.65a3.32 3.32 0 0 0 2.901-.71c.063-.048.032-.145-.05-.157-3.695-.548-5.02-1.518-5.07-1.56a.191.191 0 0 1 .187-.03c1.32.44 2.307.614 3.67.614.132 0 .27 0 .407-.006 1.22-.03 2.088-.602 2.72-1.801.031-.036-.012-.09-.069-.078ZM28.004 13.611c.21-.006.376-.27.372-.59-.004-.32-.174-.577-.38-.577-.202.007-.367.257-.371.571 0 .327.169.596.38.596Zm7.88 23.14a.576.576 0 0 0-.563-.583.576.576 0 0 0-.563.583c0 .32.253.583.563.583a.576.576 0 0 0 .563-.583Z" fill="#fff"/><path d="M36.43 37.226c-.18.372-.547.628-.962.628-.421 0-.782-.256-.962-.628-.03-.058-.103-.07-.145-.026a1.694 1.694 0 0 0-.373 1.52 4.49 4.49 0 0 1-.625-.263c-.758-.385-.47-1.18-.247-1.757a1.89 1.89 0 0 0 .127-.544c.132-1.648-1.125-2.167-1.745-2.32-.06-.014-.114.038-.108.102.21 2.743-2.91-.09-3.326 2.48-.415-2.564-3.542.27-3.326-2.48.006-.064-.048-.116-.108-.103-.62.154-1.877.673-1.744 2.32.018.186.06.372.126.545.222.577.511 1.372-.247 1.757-1.377.698-1.155.025-2.195.05a.848.848 0 0 0-.102.014c-.06.012-.138-.026-.18-.07l-2.442-2.584c.011-.045.011-.09.011-.135a.609.609 0 0 0-.36-.564 1.192 1.192 0 0 0-.163-1.179.086.086 0 0 0-.132-.006l-.313.333c-.018.02-.048.026-.072.006a.565.565 0 0 0-.421-.096c-.27.045-.487.289-.517.577a.687.687 0 0 0 .09.41c.012.026.012.058-.012.077l-.319.34c-.036.038-.036.109.006.14.319.283.752.34 1.119.167a.57.57 0 0 0 .529.398.824.824 0 0 0 .126-.013l2.46 2.602a.171.171 0 0 1 .037.154c0 .007-.006.02-.006.026-.115.442.108.917.517 1.083a.75.75 0 0 0 .553.02c.006 0 .018-.007.036-.013.03-.013.067 0 .085.019l.396.416c.06.065.139.097.21.097a.3.3 0 0 0 .248-.135c.084-.122.054-.314-.043-.423l-.349-.372a.102.102 0 0 1-.011-.122.22.22 0 0 1 .03-.038c.517-.686 1.906-.449 2.363-.75.103-.064.12-.212.06-.314-.3-.513-.529-2.058 1.071-2.359.421-.051 1.78.23 1.852 1.237h.024c-.012 0-.024.013-.024.026 0 .083-.006.167-.024.263-.078.34-.475.468-.691.525-1.84.487-3.116 2.333-1.853 3.462.066.057.163.025.18-.065.307-1.333 1.03-2.076 2.274-2.679a.125.125 0 0 1 .132.02c.012.012.012.025 0 .038-.811.602-2.327 2.333-.727 3.737.072.064.174.013.186-.077.09-1.045.367-2.199.998-2.961.03-.039.097-.058.139-.026.006.006.006.013.006.02-.199 1.07-.632 2.941.433 3.794a.156.156 0 0 0 .18 0c1.04-.834.65-2.635.445-3.718-.012-.077.079-.135.127-.077.631.763.908 1.917.998 2.962a.11.11 0 0 0 .187.076c1.593-1.403.084-3.134-.728-3.737-.012-.006-.012-.025 0-.038a.125.125 0 0 1 .132-.02c1.245.603 1.967 1.347 2.274 2.68.018.09.12.122.18.064 1.263-1.128-.012-2.98-1.852-3.461-.223-.058-.614-.186-.692-.526a1.341 1.341 0 0 1-.024-.263c0-.012-.012-.025-.024-.025h.024c.078-1 1.431-1.288 1.852-1.237 1.6.301 1.366 1.846 1.07 2.359-.065.108-.035.256.067.32.433.276 1.654.096 2.238.615a1.46 1.46 0 0 0 1.19.436c.722-.07 1.305-.686 1.378-1.448.048-.5-.12-.962-.415-1.295a.1.1 0 0 0-.157.032ZM24.623 15.944a.364.364 0 0 0 .34-.222c.117-.289-.086-.556-.347-.556-.203 0-.37.17-.37.378-.007.223.167.4.377.4Z" fill="#fff"/><path d="M18.318 18.216c.895-.054 1.519.119 1.9.808a.06.06 0 0 0 .103.006c.502-.72.472-1.74-.067-2.436v-.012a.509.509 0 0 1 .194-.748c.745-.357 2.045-.986 1.894-.333-.151.636-.266 1.485.151 2.026.23.25.46.338.823.41.146.03.297.041.442.041h1.574c.054 0 .109 0 .163-.012.587-.083.969-.326 1.501-1.087a.54.54 0 0 1 .363-.226c.23-.03.539-.023.648-.023.109 0 .417-.006.647.023a.507.507 0 0 1 .363.226c.533.766.914 1.004 1.501 1.087.055.006.11.012.164.012h1.573c.152 0 .297-.012.442-.041.363-.072.593-.167.823-.41.418-.535.303-1.39.151-2.026-.145-.653 1.15-.024 1.895.333a.509.509 0 0 1 .193.748v.012c-.538.695-.569 1.717-.066 2.436.024.035.085.035.103-.006.381-.69 1.004-.856 1.9-.808.06.006.09-.077.036-.107-1.065-.677-1.04-.856-1.016-1.248.018-.22.296-.76-.06-.861-1.332-.374-1.762-.523-2.652-1.42-.514-.47-1.168-.267-1.077.273.012.054.03.107.048.16.061.137.122.268.194.399.018.03 1.132 2.222-.72 2.37h-.054v-.154c0-.054.018-.113.06-.149.103-.095.194-.208.266-.327a.73.73 0 0 0 .11-.493c-.043-.32-.297-.558-.618-.635l-.133-.03a.08.08 0 0 0-.097.065c-.03.274-.09.541-.188.802-.042.084-.084.084-.163.084h-.218a.143.143 0 0 1-.157-.084 3.044 3.044 0 0 1-.188-.802c-.006-.047-.048-.077-.097-.07l-.145.029a.722.722 0 0 0-.224.083.738.738 0 0 0-.272 1.04c.072.118.163.225.26.326.036.042.06.095.06.149v.178h-.078c-.757-.071-1.12-.66-1.162-1.242v-.255c0-.095.036-.178.103-.25a3.43 3.43 0 0 0 .436-.54c.09-.149.15-.309.175-.481.097-.678-.381-1.277-1.071-1.396-.23-.042-.266-.012-.303.208-.054.314-.157.861-.32 1.2-.067.136-.146.136-.26.136h-.364c-.115 0-.194 0-.26-.136-.17-.339-.266-.886-.32-1.2-.043-.22-.086-.256-.303-.208-.69.118-1.168.718-1.072 1.396.025.172.085.332.176.48.127.197.272.375.436.541a.347.347 0 0 1 .103.25v.255c-.049.577-.406 1.17-1.163 1.242h-.078v-.178c0-.054.024-.107.06-.149.097-.1.188-.208.26-.326a.74.74 0 0 0-.272-1.04c-.072-.042-.145-.06-.224-.083l-.145-.03c-.048-.012-.09.024-.097.071-.024.274-.09.541-.187.802a.143.143 0 0 1-.158.084h-.218c-.072 0-.115 0-.163-.084a3.3 3.3 0 0 1-.188-.802.076.076 0 0 0-.096-.065l-.134.03c-.32.071-.574.32-.617.635a.746.746 0 0 0 .11.493c.072.12.162.232.266.327.042.042.06.095.06.149v.154h-.055c-1.851-.148-.738-2.34-.72-2.37.073-.13.14-.262.194-.398a.543.543 0 0 0 .049-.16c.09-.541-.563-.743-1.078-.274-.89.897-1.319 1.046-2.65 1.42-.358.101-.08.642-.061.861.024.392.048.57-1.017 1.248-.018.03.012.107.073.107Z" fill="#fff"/><path d="M31.371 15.944c.217 0 .383-.18.383-.396-.008-.21-.166-.382-.368-.382a.389.389 0 0 0-.383.382.38.38 0 0 0 .368.396Z" fill="#fff"/></svg>